<?xml version="1.0" encoding="utf-8"?>
<!-- Svg Vector Icons : http://www.onlinewebfonts.com/icon -->
<!DOCTYPE svg PUBLIC "-//W3C//DTD SVG 1.1//EN" "http://www.w3.org/Graphics/SVG/1.1/DTD/svg11.dtd">
<svg version="1.1" xmlns="http://www.w3.org/2000/svg" xmlns:xlink="http://www.w3.org/1999/xlink" x="0px" y="0px" viewBox="0 0 1000 1000" enable-background="new 0 0 1000 1000" xml:space="preserve">
<metadata> Svg Vector Icons : http://www.onlinewebfonts.com/icon </metadata>
<g><path d="M990,208.2V15.7H797.6v61.6H202.4V15.7H10v192.4h60.4v583.7H10v192.4h192.4v-47.1h595.1v47.1H990V791.8h-59.8V208.2H990z M202.4,150.2h220.4L143.2,429.7V208.2h59.2L202.4,150.2z M45.6,172.6V51.3h121.2v121.2H45.6z M166.8,948.7H45.6V827.4h121.2V948.7z M155.2,791.8h-11.9V536l385.9-385.9h267.7L155.2,791.8z M202.4,864.3v-16.8l639.4-639.4h15.6v255.2L456.4,864.3L202.4,864.3L202.4,864.3z M797.6,864.3H559.4l298-298v225.5h-59.8V864.3z M954.4,827.4v121.2H833.2V827.4H954.4z M833.2,172.6V51.3h121.2v121.2H833.2z"/></g>
</svg>