<?xml version="1.0" encoding="utf-8"?>
<!-- Svg Vector Icons : http://www.onlinewebfonts.com/icon -->
<!DOCTYPE svg PUBLIC "-//W3C//DTD SVG 1.1//EN" "http://www.w3.org/Graphics/SVG/1.1/DTD/svg11.dtd">
<svg version="1.1" xmlns="http://www.w3.org/2000/svg" xmlns:xlink="http://www.w3.org/1999/xlink" x="0px" y="0px" viewBox="0 0 1000 1000" enable-background="new 0 0 1000 1000" xml:space="preserve">
<metadata> Svg Vector Icons : http://www.onlinewebfonts.com/icon </metadata>
<g><g transform="translate(0.000000,511.000000) scale(0.100000,-0.100000)"><path d="M3878.3,4512.6c-410.5-67.7-818.9-377.6-1009.7-763.5c-147.8-297.6-145.7-262.7-145.7-2060.6V81.6l-1264.2-4.1L194.3,71.4L143,11.9C102-37.4,93.7-62,104-121.5c18.5-121.1,67.7-145.7,301.7-145.7h203.2v-398.1c0-470,24.6-747.1,92.4-1030.3C861.3-2370.9,1280-2998.9,1834.1-3395l108.8-78v-418.7v-420.7l170.3,6.2l168.3,6.2l6.2,303.7c2.1,166.3,10.3,301.7,14.4,301.7c6.2,0,88.2-32.8,182.7-71.8c449.5-184.7,693.7-201.1,2780.9-188.8c1344.3,8.2,1596.7,14.4,1746.6,43.1c203.2,39,389.9,98.5,568.5,178.5l127.2,57.5l6.2-312l6.2-312l170.3-6.2l168.3-6.2v420.7v420.7l160.1,121.1c437.1,332.5,833.3,890.7,1009.7,1420.2c112.9,334.5,127.3,451.5,141.6,1067.2l12.3,584.9l221.7,10.3c192.9,8.2,227.8,16.4,252.4,51.3C9930.6-115.4,9908,1.6,9803.3,55c-41,20.5-761.4,26.7-3390.5,26.7H3071.7v1596.7c0,1736.3,0,1728.1,119,1970.2c82.1,170.3,256.5,338.6,437.2,424.8c258.6,121.1,568.5,137.5,763.5,39l55.4-30.8l-39-75.9c-192.9-377.6-110.8-820.9,207.3-1124.7c96.5-92.4,127.2-110.8,141.6-88.2c10.3,16.4,53.4,82.1,92.4,147.8l73.9,121.1l-84.1,80c-117,112.9-170.4,227.8-182.7,389.9c-14.4,203.2,36.9,344.8,170.3,480.2c125.2,125.2,246.3,174.5,431,174.5c182.6,0,307.9-49.3,426.9-168.3l100.6-100.6l135.4,86.2c75.9,47.2,141.6,88.2,145.7,92.4c20.5,18.5-156,199.1-266.8,273c-184.7,123.1-367.4,172.4-595.2,162.1c-164.2-8.2-199.1-16.4-348.9-92.4l-164.2-84.1l-129.3,59.5C4335.9,4518.8,4112.2,4551.6,3878.3,4512.6z M9017.3-846c-12.3-722.4-43.1-878.4-260.6-1319.6c-307.9-621.8-976.9-1184.2-1635.7-1370.9c-158-45.2-174.5-45.2-2027.7-51.3c-1290.9-4.1-1916.9,0-2027.7,16.4c-591.1,84.1-1284.8,554.1-1666.5,1128.8c-246.3,367.4-377.6,742.9-418.7,1192.4c-24.6,256.5-30.8,948.2-8.2,968.7c6.2,8.2,1822.5,14.4,4034.9,14.4h4020.5L9017.3-846z"/><path d="M6566.8,3736.8l-43.1-162.1l363.3-96.5c199.1-53.4,369.4-98.5,379.7-100.6c16.4-2.1,123.1,316.1,108.8,328.4c-10.3,8.2-712.2,192.9-736.8,192.9C6620.2,3899,6593.5,3839.5,6566.8,3736.8z"/><path d="M6000.4,2918l-117-117l390-389.9l389.9-389.9l112.9,112.9c61.6,61.6,112.9,121.1,112.9,133.4c0,20.5-738.8,769.6-759.4,769.6C6123.5,3037,6066,2983.6,6000.4,2918z"/><path d="M5064.5,2257.1c-71.8-22.6-133.4-43.1-137.5-45.2c-8.2-10.3,186.8-730.6,201.1-747c12.3-12.3,262.7,47.2,303.7,73.9c39,24.6-158,759.4-203.2,757.3C5210.2,2296.1,5136.3,2277.6,5064.5,2257.1z"/></g></g>
</svg>