<?xml version="1.0" encoding="utf-8"?>
<!-- Svg Vector Icons : http://www.onlinewebfonts.com/icon -->
<!DOCTYPE svg PUBLIC "-//W3C//DTD SVG 1.1//EN" "http://www.w3.org/Graphics/SVG/1.1/DTD/svg11.dtd">
<svg version="1.1" xmlns="http://www.w3.org/2000/svg" xmlns:xlink="http://www.w3.org/1999/xlink" x="0px" y="0px" viewBox="0 0 1000 1000" enable-background="new 0 0 1000 1000" xml:space="preserve">
<metadata> Svg Vector Icons : http://www.onlinewebfonts.com/icon </metadata>
<g><g transform="translate(0.000000,511.000000) scale(0.100000,-0.100000)"><path d="M1729.8,3218.2c-46.9-17-110.8-55.4-142.7-87.3c-121.4-115-123.6-136.3-123.6-856.4v-662.6H945.8c-494.3,0-522-2.1-611.4-46.9c-51.1-27.7-123.6-85.2-157.6-129.9l-66-83.1l-6.4-1634l-4.3-1634l61.8-95.9c95.9-153.4,191.7-189.6,498.5-189.6h249.3v-291.9c0-434.6,55.4-517.7,357.9-534.7c200.3-10.6,294,14.9,379.2,104.4c61.8,63.9,61.8,66.1,72.4,387.7l10.6,323.8l3261.7,6.4l3263.8,4.3l8.5-306.8c8.5-334.5,19.2-368.6,153.4-468.7c49-38.3,89.5-44.7,264.2-44.7c179,0,215.2,6.4,272.7,46.9c115.1,83.1,136.4,157.6,136.4,483.6v289.7h242.9c272.7,0,332.3,14.9,436.7,112.9c136.3,130,129.9,51.1,129.9,1793.8c0,1519-2.1,1591.4-40.5,1668.1c-51.1,100.1-119.3,164-219.4,206.7c-63.9,25.6-176.8,32-592.3,32h-511.3v660.4c0,620-2.1,666.8-42.6,745.6c-46.9,93.7-144.9,174.7-253.5,210.9c-53.3,17.1-926.7,23.4-3248.9,21.3C2268.8,3250.1,1802.2,3245.9,1729.8,3218.2z M4723,1196.4v-1225H3498H2273v1225v1225h1225h1225V1196.4z M7726.9,1196.4v-1225h-1225h-1225v1225v1225h1225h1225V1196.4z M1719.1,376.2V-28.6h-74.6c-53.3,0-93.7-17-127.8-53.3c-46.9-44.7-53.3-70.3-53.3-219.4c0-151.3,4.3-172.6,55.4-219.4l55.4-51.1H5000h3425.7l55.4,51.1c51.1,46.9,55.4,68.2,55.4,219.4c0,149.1-6.4,174.7-53.3,219.4c-34.1,36.2-74.6,53.3-127.8,53.3h-74.6v404.8V781h404.8h404.8V-305.6v-1086.5H5000H909.6v1086.5V781h404.8h404.8V376.2z"/></g></g>
</svg>