<?xml version="1.0" encoding="utf-8"?>
<!-- Svg Vector Icons : http://www.onlinewebfonts.com/icon -->
<!DOCTYPE svg PUBLIC "-//W3C//DTD SVG 1.1//EN" "http://www.w3.org/Graphics/SVG/1.1/DTD/svg11.dtd">
<svg version="1.1" xmlns="http://www.w3.org/2000/svg" xmlns:xlink="http://www.w3.org/1999/xlink" x="0px" y="0px" viewBox="0 0 1000 1000" enable-background="new 0 0 1000 1000" xml:space="preserve">
<metadata> Svg Vector Icons : http://www.onlinewebfonts.com/icon </metadata>
<g><g transform="translate(0.000000,307.000000) scale(0.100000,-0.100000)"><path d="M1386.4,977c-170.4-59.4-308.3-181.9-404-358.1c-51.7-95.7-51.7-95.7-61.3-593.6l-9.6-496l-80.4-23c-327.5-95.8-616.6-394.5-704.7-725.8c-78.5-306.4,21.1-647.2,260.4-890.4c122.6-124.5,237.5-197.2,407.9-260.4l116.8-42.1l5.7-1227.5l3.8-1227.5H1486h564.9v162.8v162.8h2949h2949v-162.8v-162.8h564.9h564.9l3.8,1227.5l5.7,1227.5l116.8,42.1c335.1,122.5,582.1,386.8,668.3,710.4c124.5,478.7-203,1020.7-704.7,1166.2l-80.4,23l-9.6,496c-9.6,496-9.6,497.9-61.3,595.6c-68.9,132.1-203,262.3-337,327.5l-109.2,53.6l-3542.7,3.8C1666,1009.6,1480.3,1009.6,1386.4,977z M2223.3,659.1c0-15.3,21.1-51.7,46-80.4c63.2-74.7,170.4-74.7,233.6,0c24.9,28.7,46,65.1,46,80.4c0,23,53.6,26.8,321.7,26.8h321.7l21.1-57.5c30.6-80.4,139.8-126.4,212.6-91.9c28.7,13.4,65.1,53.6,80.4,86.2l28.7,63.2h317.9h319.8l24.9-59.4c26.8-67,126.4-120.6,183.8-99.6c55.5,19.2,120.6,86.2,120.6,124.5c0,32.5,23,34.5,335.1,34.5c306.4,0,335.1-3.8,335.1-32.6c3.8-147.5,239.4-172.4,298.7-32.5l26.8,65.1h325.5c302.6,0,325.5-1.9,325.5-34.5c0-38.3,65.1-105.3,120.6-124.5c59.4-21.1,166.6,36.4,187.7,101.5l21.1,57.5h323.6c270,0,323.6-3.8,323.6-26.8c0-15.3,21.1-51.7,46-80.4c34.5-40.2,61.3-53.6,116.8-53.6c55.5,0,82.3,13.4,116.8,53.6c24.9,28.7,46,65.1,46,80.4c0,23,53.6,26.8,321.7,26.8h321.7l21.1-57.5c30.6-80.4,139.8-126.4,212.5-91.9c26.8,13.4,63.2,51.7,80.4,82.3c15.3,32.6,30.6,61.3,32.6,65.1c1.9,3.8,42.1-3.8,90-17.2c180-49.8,293-271.9,164.7-325.5c-68.9-28.7-95.7-70.9-95.7-153.2c0-65.1,72.8-153.2,124.5-153.2c26.8,0,28.7-32.6,24.9-250.9l-5.7-252.8l-78.5-23c-252.8-74.7-499.8-287.2-622.4-536.2c-80.4-164.7-113-317.9-113-534.3c0-111.1-3.8-128.3-23-101.5c-59.4,76.6-197.2,76.6-256.6-1.9c-40.2-51.7-32.6-159,15.3-208.7l40.2-44h-417.5h-417.5l40.2,44c113,120.6-11.5,314.1-168.5,258.5c-113-38.3-141.7-180-57.5-264.3c38.3-38.3,36.4-38.3-375.3-38.3h-411.7l38.3,49.8c107.3,136-23,314-180,248.9c-113-47.9-141.7-168.5-57.5-250.9l45.9-47.9h-419.4h-419.4l46,47.9c61.3,59.4,61.3,143.6,1.9,212.6c-134,158.9-367.7-46-239.4-210.6l38.3-49.8h-411.7c-411.7,0-413.6,0-375.3,38.3c86.2,86.2,63.2,214.5-46,258.5c-74.7,30.6-114.9,23-178.1-34.5c-57.4-51.7-59.4-157-1.9-218.3l40.2-44h-417.5c-339,0-413.6,3.8-386.8,24.9c91.9,70.9,72.8,227.9-34.5,273.8c-74.7,30.6-170.4,5.7-201.1-49.8c-32.6-61.3-21.1-157,23-204.9l40.2-44h-365.7h-367.7v235.5c0,306.4-26.8,474.9-95.7,622.4c-32.6,68.9-46,118.7-34.5,118.7c47.9,0,111.1,84.3,111.1,145.5c0,88.1-17.2,120.6-80.4,153.2c-70.8,36.4-155.1,19.2-204.9-40.2l-34.5-46l-36.4,38.3C1643-633.5,1510.9-558.8,1373-509c-101.5,36.4-116.8,47.9-122.6,93.8l-7.7,53.6l63.2-51.7c49.8-42.1,74.7-49.8,120.6-42.1c116.8,24.9,172.3,134,118.7,237.5c-49.8,95.8-174.3,111.1-250.9,32.6l-47.9-46V100c0,191.5,9.6,356.2,21.1,392.6c24.9,68.9,19.2,65.1,84.3,40.2c72.8-28.7,178.1,21.1,203,95.8l21.1,57.5h323.6C2169.6,685.9,2223.3,682.1,2223.3,659.1z M1365.4-851.8c134-59.4,237.5-162.8,300.6-298.7l49.8-107.2l5.7-1641.1l3.8-1643H1486h-239.4v1551.1v1551.1h-172.3H901.9v-317.9v-316l-42.1,11.5c-180,53.6-342.8,224.1-402.1,417.5c-111.1,365.8,63.2,714.3,415.6,831.1C992-775.2,1239-792.4,1365.4-851.8z M9207.1-844.1c118.7-51.7,260.4-195.3,314-319.8c97.7-220.2,53.6-530.4-99.6-704.7c-76.6-86.2-193.4-166.6-279.6-193.4l-44-11.5v316v317.9h-172.3h-172.3v-1551.1v-1551.1h-239.4h-239.4v1604.7c0,1759.9-3.8,1706.2,114.9,1884.3c67,101.5,174.3,180,312.1,229.8C8837.5-775.2,9069.2-784.7,9207.1-844.1z M7929.8-1880.1c0-24.9-13.4-38.3-38.3-38.3c-36.4,0-36.4,1.9-3.8,36.4C7929.8-1834.1,7929.8-1834.1,7929.8-1880.1z M7929.8-2502.5v-239.4H5000H2070.1v239.4v239.4H5000h2929.9V-2502.5z M7929.8-3641.9v-574.5H5000H2070.1v574.5v574.5H5000h2929.9V-3641.9z"/><path d="M1792.4,316.3c-113-95.7-42.1-281.5,107.2-281.5c80.4,0,151.3,74.7,151.3,158.9c0,86.2-49.8,145.5-136,158.9C1861.3,362.3,1836.4,354.6,1792.4,316.3z"/><path d="M2769,312.5c-68.9-67-67-183.8,1.9-237.5c109.2-86.2,264.3-15.3,264.3,122.5C3035.2,339.3,2866.7,412.1,2769,312.5z"/><path d="M3784,337.4c-149.4-80.4-93.8-302.6,74.7-302.6c49.8,0,76.6,13.4,114.9,59.4c65.1,76.6,63.2,141.7-5.7,210.7C3908.4,362.3,3849.1,373.8,3784,337.4z"/><path d="M4733.8,310.6c-46-38.3-59.4-65.1-59.4-114.9c0-147.5,180-216.4,277.7-111.1c65.1,70.8,63.2,149.4-7.7,220.2C4875.5,373.8,4810.4,375.7,4733.8,310.6z"/><path d="M5706.6,304.9c-59.4-59.4-68.9-113-32.5-180c32.5-63.2,74.7-88.1,145.5-90c166.6-1.9,216.4,224.1,67,302.6C5819.6,373.8,5765.9,364.2,5706.6,304.9z"/><path d="M6694.7,316.3c-113-95.7-42.1-281.5,107.2-281.5c80.4,0,151.3,74.7,151.3,158.9c0,86.2-49.8,145.5-136,158.9C6763.6,362.3,6738.7,354.6,6694.7,316.3z"/><path d="M7671.3,312.5c-68.9-67-67-183.8,1.9-237.5c109.1-86.2,264.3-15.3,264.3,122.5C7937.5,339.3,7769,412.1,7671.3,312.5z"/><path d="M2271.1-185.4c-67-65.1-63.2-149.4,9.6-224.1c49.8-47.9,68.9-55.5,120.6-46c78.5,15.3,147.5,91.9,147.5,166.6c0,82.3-74.7,151.3-162.8,151.3C2338.2-137.5,2301.8-152.8,2271.1-185.4z"/><path d="M3280.3-150.9c-30.6-11.5-80.4-107.2-80.4-157c0-55.5,76.6-134,145.5-147.5c84.3-15.3,180,67,180,157C3525.4-179.6,3399-103,3280.3-150.9z"/><path d="M4224.4-198.8c-55.5-67-55.5-145.5,1.9-208.7c67-72.8,231.7-53.6,264.3,30.6c28.7,74.7,11.5,158.9-38.3,199.2C4375.7-116.4,4285.7-124.1,4224.4-198.8z"/><path d="M5214.4-181.5c-44.1-47.9-55.5-143.6-23-203c30.7-59.4,124.5-88.1,193.4-57.5c67,26.8,120.6,126.4,99.6,183.8C5442.3-137.5,5294.8-95.4,5214.4-181.5z"/><path d="M6196.8-185.4c-145.5-143.6,70.9-365.8,222.1-227.9c49.8,46,63.2,130.2,28.7,195.3C6397.9-122.2,6273.4-106.9,6196.8-185.4z"/><path d="M7173.4-185.4c-67-65.1-63.2-149.4,9.6-224.1c49.8-47.9,68.9-55.5,120.6-46c78.5,15.3,147.5,91.9,147.5,166.6c0,82.3-74.7,151.3-162.8,151.3C7240.4-137.5,7204.1-152.8,7173.4-185.4z"/><path d="M8182.6-150.9c-30.7-11.5-80.4-107.2-80.4-157c0-55.5,76.6-134,145.5-147.5c84.3-15.3,180,67,180,157C8427.7-179.6,8301.3-103,8182.6-150.9z"/><path d="M2807.3-639.2c-61.3-32.5-86.2-74.7-86.2-149.4c0-183.8,250.9-210.6,312.1-34.5c19.2,53.6-24.9,149.4-84.3,178.1C2885.8-610.5,2859-610.5,2807.3-639.2z"/><path d="M3784-639.2c-59.4-34.5-84.3-76.6-86.2-145.5c0-114.9,122.6-189.6,239.4-145.5c47.9,19.2,90,118.7,76.6,180C3992.7-650.7,3866.3-589.4,3784-639.2z"/><path d="M4731.9-669.9c-72.8-74.7-76.6-158.9-9.6-224.1c97.7-99.6,277.7-30.6,277.7,103.4c0,74.7-68.9,151.3-147.5,166.6C4800.8-614.3,4781.6-622,4731.9-669.9z"/><path d="M5746.8-641.1c-151.3-76.6-101.5-300.7,67-300.7c153.2,0,220.2,178.1,103.4,275.8C5852.1-610.5,5817.6-604.7,5746.8-641.1z"/><path d="M6733-635.4c-53.6-21.1-84.3-59.4-97.7-128.3c-15.3-80.4,67-178.1,155.1-178.1c90,0,162.8,63.2,162.8,143.6c0,90-15.3,122.5-78.5,153.2C6815.3-612.4,6788.5-610.5,6733-635.4z"/><path d="M7709.6-639.2c-61.3-32.5-86.2-74.7-86.2-149.4c0-183.8,250.8-210.6,312.1-34.5c19.2,53.6-24.9,149.4-84.2,178.1C7788.1-610.5,7761.3-610.5,7709.6-639.2z"/><path d="M2271.1-1162c-67-65.1-63.2-149.4,7.7-222.1c34.5-32.5,76.6-55.5,107.2-55.5c61.3,0,162.8,95.8,162.8,153.2C2548.8-1137.1,2374.5-1058.6,2271.1-1162z"/><path d="M3261.2-1152.4c-88.1-82.3-70.9-204.9,36.4-266.2c97.7-55.5,227.9,26.8,227.9,145.5C3525.4-1139,3358.8-1062.4,3261.2-1152.4z"/><path d="M4241.6-1160.1c-120.6-101.5-30.6-296.8,124.5-271.9c86.2,13.4,136,72.8,136,158.9C4502.1-1135.2,4348.9-1066.2,4241.6-1160.1z"/><path d="M5222.1-1154.3c-38.3-30.6-49.8-55.5-49.8-114.9c0-149.4,149.4-222.1,260.4-124.5C5591.7-1259.7,5386.8-1026,5222.1-1154.3z"/><path d="M6196.8-1162c-78.5-76.6-63.2-201.1,30.6-248.9c80.4-42.1,128.3-34.5,191.5,26.8c68.9,68.9,70.9,134.1,5.8,210.6C6361.5-1096.9,6265.7-1091.1,6196.8-1162z"/><path d="M7173.4-1162c-67-65.1-63.2-149.4,7.7-222.1c72.8-72.8,141.7-72.8,214.5,0c70.9,72.8,72.8,151.3,5.8,220.2C7334.3-1096.9,7236.6-1096.9,7173.4-1162z"/></g></g>
</svg>